<svg xmlns="http://www.w3.org/2000/svg" width="640" height="640" viewBox="0 0 640 640">
          <defs>
            <linearGradient id="background" x2="1" y2="1"><stop stop-color="#EDF0E9"/><stop offset="1" stop-color="#C6D4C6"/></linearGradient>
            <filter id="shadow" x="-30%" y="-30%" width="160%" height="180%"><feDropShadow dx="0" dy="18" stdDeviation="18" flood-color="#92AAA0" flood-opacity=".18"/></filter>
          </defs>
          <rect width="640" height="640" fill="url(#background)"/>
          <circle cx="535" cy="125" r="180" fill="white" opacity=".18"/>
          <circle cx="85" cy="510" r="170" fill="white" opacity=".12"/>
          <path d="M32 50h35M50 32v35M573 590h35M590 573v35" stroke="#92AAA0" stroke-opacity=".45"/>
          
            <g transform="translate(155 123) rotate(-8 78 175)" filter="url(#shadow)">
              <rect width="158" height="332" rx="27" fill="#FCFCFA" stroke="#D7DBD6"/>
              <rect x="51" y="12" width="56" height="5" rx="2.5" fill="#C6D4C6"/>
              <circle cx="32" cy="51" r="13" fill="#C6D4C6"/>
              <rect x="53" y="44" width="71" height="7" rx="3" fill="#C6D4C6"/>
              <rect x="53" y="57" width="47" height="5" rx="2.5" fill="#E4E8E2"/>
              <rect x="17" y="89" width="124" height="111" rx="12" fill="#C6D4C6"/>
              <circle cx="79" cy="141" r="31" fill="none" stroke="#FCFCFA" stroke-width="10"/>
              <rect x="18" y="223" width="78" height="7" rx="3" fill="#92AAA0"/>
              <rect x="18" y="240" width="115" height="5" rx="2" fill="#E4E8E2"/>
              <rect x="18" y="252" width="91" height="5" rx="2" fill="#E4E8E2"/>
              <rect x="18" y="281" width="122" height="28" rx="14" fill="#92AAA0"/>
            </g>
            <g transform="translate(328 163) rotate(9 78 165)" filter="url(#shadow)">
              <rect width="158" height="332" rx="27" fill="#FCFCFA" stroke="#D7DBD6"/>
              <rect x="51" y="12" width="56" height="5" rx="2.5" fill="#C6D4C6"/>
              <rect x="19" y="46" width="77" height="9" rx="4" fill="#92AAA0"/>
              <rect x="19" y="67" width="109" height="5" rx="2" fill="#E4E8E2"/>
              <rect x="19" y="94" width="120" height="76" rx="12" fill="#C6D4C6"/>
              <rect x="19" y="185" width="120" height="47" rx="10" fill="#EDF0E9"/>
              <rect x="19" y="245" width="120" height="47" rx="10" fill="#EDF0E9"/>
              <circle cx="42" cy="208" r="10" fill="#92AAA0"/>
              <circle cx="42" cy="268" r="10" fill="#C6D4C6"/>
              <path d="M63 204h55m-55 10h38m-38 50h55m-55 10h38" stroke="#C6D4C6" stroke-width="5" stroke-linecap="round"/>
            </g>
          <text x="32" y="606" font-family="monospace" font-size="11" letter-spacing="1.4" fill="#4C5960">PROJECT PLACEHOLDER / 01</text>
        </svg>